<mxfile host="app.diagrams.net" modified="2023-06-24T15:47:14.437Z" agent="Mozilla/5.0 (Macintosh; Intel Mac OS X 10_15_7) AppleWebKit/537.36 (KHTML, like Gecko) Chrome/114.0.0.0 Safari/537.36" etag="k2E3onb_I21nBXR1Cwz5" version="21.5.0" type="device">
  <diagram id="07fea595-8f29-1299-0266-81d95cde20df" name="Page-1">
    <mxGraphModel dx="1551" dy="783" grid="1" gridSize="10" guides="1" tooltips="1" connect="1" arrows="1" fold="1" page="1" pageScale="1" pageWidth="1169" pageHeight="827" background="#ffffff" math="0" shadow="0">
      <root>
        <mxCell id="0" />
        <mxCell id="1" parent="0" />
        <mxCell id="TBaOCTzcAi8fZqAFif89-218" value="INTERNET/ VPN" style="swimlane;whiteSpace=wrap;html=1;fillColor=#f5f5f5;strokeColor=#666666;fontColor=#333333;fillStyle=auto;swimlaneFillColor=#E6E6E6;" vertex="1" parent="1">
          <mxGeometry x="355" y="10" width="230" height="620" as="geometry" />
        </mxCell>
        <mxCell id="TBaOCTzcAi8fZqAFif89-263" value="Internet" style="ellipse;shape=cloud;whiteSpace=wrap;html=1;fillColor=#b7c2f0;" vertex="1" parent="TBaOCTzcAi8fZqAFif89-218">
          <mxGeometry x="45" y="315.5" width="130" height="80" as="geometry" />
        </mxCell>
        <mxCell id="TBaOCTzcAi8fZqAFif89-273" value="&lt;b&gt;&lt;font color=&quot;#4d27aa&quot;&gt;ip:8080/api-docs&lt;/font&gt;&lt;/b&gt;" style="text;html=1;strokeColor=none;fillColor=none;align=center;verticalAlign=middle;whiteSpace=wrap;rounded=0;" vertex="1" parent="TBaOCTzcAi8fZqAFif89-218">
          <mxGeometry x="58.75" y="285.5" width="112.5" height="30" as="geometry" />
        </mxCell>
        <mxCell id="TBaOCTzcAi8fZqAFif89-220" value="CLOUD AWS" style="swimlane;whiteSpace=wrap;html=1;swimlaneFillColor=#ffffff;fillColor=#f5f5f5;fontColor=#333333;strokeColor=#666666;" vertex="1" parent="1">
          <mxGeometry x="610" y="10" width="740" height="620" as="geometry" />
        </mxCell>
        <mxCell id="TBaOCTzcAi8fZqAFif89-251" value="" style="rounded=0;whiteSpace=wrap;html=1;fillColor=#fff2cc;strokeColor=#d6b656;" vertex="1" parent="TBaOCTzcAi8fZqAFif89-220">
          <mxGeometry x="110" y="50" width="490" height="530" as="geometry" />
        </mxCell>
        <mxCell id="TBaOCTzcAi8fZqAFif89-224" value="" style="rounded=0;whiteSpace=wrap;html=1;fillColor=#f5f5f5;fontColor=#333333;strokeColor=#666666;rotation=90;" vertex="1" parent="TBaOCTzcAi8fZqAFif89-220">
          <mxGeometry x="175.12" y="205.13" width="389.5" height="283.25" as="geometry" />
        </mxCell>
        <mxCell id="TBaOCTzcAi8fZqAFif89-231" value="" style="shape=image;verticalLabelPosition=bottom;labelBackgroundColor=default;verticalAlign=top;aspect=fixed;imageAspect=0;image=https://cdn-icons-png.flaticon.com/512/919/919825.png;" vertex="1" parent="TBaOCTzcAi8fZqAFif89-220">
          <mxGeometry x="384.25" y="240" width="99" height="99" as="geometry" />
        </mxCell>
        <mxCell id="TBaOCTzcAi8fZqAFif89-232" value="" style="shape=image;verticalLabelPosition=bottom;labelBackgroundColor=default;verticalAlign=top;aspect=fixed;imageAspect=0;image=https://cdn-icons-png.flaticon.com/512/919/919825.png;" vertex="1" parent="TBaOCTzcAi8fZqAFif89-220">
          <mxGeometry x="387.25" y="335" width="99" height="99" as="geometry" />
        </mxCell>
        <mxCell id="TBaOCTzcAi8fZqAFif89-233" value="" style="shape=image;verticalLabelPosition=bottom;labelBackgroundColor=default;verticalAlign=top;aspect=fixed;imageAspect=0;image=https://cdn-icons-png.flaticon.com/512/919/919825.png;" vertex="1" parent="TBaOCTzcAi8fZqAFif89-220">
          <mxGeometry x="386.25" y="436" width="99" height="99" as="geometry" />
        </mxCell>
        <mxCell id="TBaOCTzcAi8fZqAFif89-234" value="&lt;font color=&quot;#1a1a1a&quot;&gt;my-node-app&lt;/font&gt;" style="text;html=1;strokeColor=none;fillColor=none;align=center;verticalAlign=middle;whiteSpace=wrap;rounded=0;fontStyle=1" vertex="1" parent="TBaOCTzcAi8fZqAFif89-220">
          <mxGeometry x="390.75" y="240" width="82.5" height="30" as="geometry" />
        </mxCell>
        <mxCell id="TBaOCTzcAi8fZqAFif89-235" value="&lt;font color=&quot;#1a1a1a&quot;&gt;my-node-app&lt;/font&gt;" style="text;html=1;strokeColor=none;fillColor=none;align=center;verticalAlign=middle;whiteSpace=wrap;rounded=0;fontStyle=1" vertex="1" parent="TBaOCTzcAi8fZqAFif89-220">
          <mxGeometry x="393.5" y="335" width="82.5" height="30" as="geometry" />
        </mxCell>
        <mxCell id="TBaOCTzcAi8fZqAFif89-236" value="&lt;font color=&quot;#1a1a1a&quot;&gt;my-node-app&lt;/font&gt;" style="text;html=1;strokeColor=none;fillColor=none;align=center;verticalAlign=middle;whiteSpace=wrap;rounded=0;fontStyle=1" vertex="1" parent="TBaOCTzcAi8fZqAFif89-220">
          <mxGeometry x="392.5" y="436" width="82.5" height="30" as="geometry" />
        </mxCell>
        <mxCell id="TBaOCTzcAi8fZqAFif89-248" value="" style="line;strokeWidth=4;html=1;perimeter=backbonePerimeter;points=[];outlineConnect=0;fillColor=#dae8fc;strokeColor=#4d27aa;" vertex="1" parent="TBaOCTzcAi8fZqAFif89-220">
          <mxGeometry x="250" y="210" width="253" height="10" as="geometry" />
        </mxCell>
        <mxCell id="TBaOCTzcAi8fZqAFif89-253" value="" style="shape=image;verticalLabelPosition=bottom;labelBackgroundColor=default;verticalAlign=top;aspect=fixed;imageAspect=0;image=https://upload.wikimedia.org/wikipedia/commons/thumb/9/93/Amazon_Web_Services_Logo.svg/1024px-Amazon_Web_Services_Logo.svg.png;" vertex="1" parent="TBaOCTzcAi8fZqAFif89-220">
          <mxGeometry x="510" y="60" width="83.52" height="50" as="geometry" />
        </mxCell>
        <mxCell id="TBaOCTzcAi8fZqAFif89-254" value="" style="shape=image;verticalLabelPosition=bottom;labelBackgroundColor=default;verticalAlign=top;aspect=fixed;imageAspect=0;image=https://ikarus.sg/content/images/2020/07/docker-to-swarm-1.png;" vertex="1" parent="TBaOCTzcAi8fZqAFif89-220">
          <mxGeometry x="300.8" y="140" width="138.13" height="80" as="geometry" />
        </mxCell>
        <mxCell id="TBaOCTzcAi8fZqAFif89-256" value="" style="sketch=0;outlineConnect=0;fontColor=#232F3E;gradientColor=none;fillColor=#4D27AA;strokeColor=none;dashed=0;verticalLabelPosition=bottom;verticalAlign=top;align=center;html=1;fontSize=12;fontStyle=0;aspect=fixed;pointerEvents=1;shape=mxgraph.aws4.network_load_balancer;" vertex="1" parent="TBaOCTzcAi8fZqAFif89-220">
          <mxGeometry x="260" y="316.5" width="78" height="78" as="geometry" />
        </mxCell>
        <mxCell id="TBaOCTzcAi8fZqAFif89-258" value="Load&lt;br&gt;Balancing" style="text;html=1;strokeColor=none;fillColor=none;align=center;verticalAlign=middle;whiteSpace=wrap;rounded=0;fontColor=#4d27aa;fontStyle=1" vertex="1" parent="TBaOCTzcAi8fZqAFif89-220">
          <mxGeometry x="269" y="394.5" width="60" height="30" as="geometry" />
        </mxCell>
        <mxCell id="TBaOCTzcAi8fZqAFif89-260" value="&lt;font color=&quot;#4d27aa&quot;&gt;&lt;b&gt;Instancias&lt;/b&gt;&lt;/font&gt;" style="text;html=1;strokeColor=none;fillColor=none;align=center;verticalAlign=middle;whiteSpace=wrap;rounded=0;" vertex="1" parent="TBaOCTzcAi8fZqAFif89-220">
          <mxGeometry x="403.75" y="210" width="60" height="30" as="geometry" />
        </mxCell>
        <mxCell id="TBaOCTzcAi8fZqAFif89-262" value="" style="rounded=0;whiteSpace=wrap;html=1;dashed=1;dashPattern=8 8;fillColor=none;strokeColor=#000000;" vertex="1" parent="TBaOCTzcAi8fZqAFif89-220">
          <mxGeometry x="370" y="240" width="130" height="290" as="geometry" />
        </mxCell>
        <mxCell id="TBaOCTzcAi8fZqAFif89-266" value="Service&lt;br&gt;router" style="text;html=1;strokeColor=none;fillColor=none;align=center;verticalAlign=middle;whiteSpace=wrap;rounded=0;fontColor=#4d27aa;fontStyle=1" vertex="1" parent="TBaOCTzcAi8fZqAFif89-220">
          <mxGeometry x="129" y="394.5" width="60" height="30" as="geometry" />
        </mxCell>
        <mxCell id="TBaOCTzcAi8fZqAFif89-265" value="" style="sketch=0;outlineConnect=0;fontColor=#232F3E;gradientColor=none;fillColor=#4D27AA;strokeColor=none;dashed=0;verticalLabelPosition=bottom;verticalAlign=top;align=center;html=1;fontSize=12;fontStyle=0;aspect=fixed;pointerEvents=1;shape=mxgraph.aws4.customer_gateway;" vertex="1" parent="TBaOCTzcAi8fZqAFif89-220">
          <mxGeometry x="120" y="316.5" width="78" height="78" as="geometry" />
        </mxCell>
        <mxCell id="TBaOCTzcAi8fZqAFif89-269" value="" style="endArrow=classic;html=1;rounded=0;exitX=0.875;exitY=0.5;exitDx=0;exitDy=0;exitPerimeter=0;strokeWidth=4;strokeColor=#808080;" edge="1" parent="TBaOCTzcAi8fZqAFif89-220">
          <mxGeometry width="50" height="50" relative="1" as="geometry">
            <mxPoint x="198" y="355.97" as="sourcePoint" />
            <mxPoint x="260" y="355" as="targetPoint" />
          </mxGeometry>
        </mxCell>
        <mxCell id="TBaOCTzcAi8fZqAFif89-270" value="" style="endArrow=classic;html=1;rounded=0;exitX=0.875;exitY=0.5;exitDx=0;exitDy=0;exitPerimeter=0;strokeWidth=4;strokeColor=#808080;" edge="1" parent="TBaOCTzcAi8fZqAFif89-220">
          <mxGeometry width="50" height="50" relative="1" as="geometry">
            <mxPoint x="340" y="355.94000000000005" as="sourcePoint" />
            <mxPoint x="370" y="355" as="targetPoint" />
          </mxGeometry>
        </mxCell>
        <mxCell id="TBaOCTzcAi8fZqAFif89-268" value="" style="endArrow=classic;html=1;rounded=0;exitX=0.875;exitY=0.5;exitDx=0;exitDy=0;exitPerimeter=0;strokeWidth=4;strokeColor=#808080;" edge="1" parent="1" source="TBaOCTzcAi8fZqAFif89-263" target="TBaOCTzcAi8fZqAFif89-265">
          <mxGeometry width="50" height="50" relative="1" as="geometry">
            <mxPoint x="550" y="381.75" as="sourcePoint" />
            <mxPoint x="600" y="331.75" as="targetPoint" />
          </mxGeometry>
        </mxCell>
      </root>
    </mxGraphModel>
  </diagram>
</mxfile>
